<?xml version="1.0" encoding="utf-8"?>
<!-- Generator: Adobe Illustrator 26.5.0, SVG Export Plug-In . SVG Version: 6.00 Build 0)  -->
<svg version="1.1" id="Layer_1" xmlns="http://www.w3.org/2000/svg" xmlns:xlink="http://www.w3.org/1999/xlink" x="0px" y="0px"
	 viewBox="0 0 1920 1080" style="enable-background:new 0 0 1920 1080;" xml:space="preserve">
<style type="text/css">
	.st0{fill:none;stroke:#B9AAC8;stroke-miterlimit:10;}
	.st1{fill:none;stroke:#EBD8FF;stroke-miterlimit:10;}
	.st2{fill:#F1D1DD;}
	.st3{fill:none;stroke:#AC83AB;stroke-miterlimit:10;}
	.st4{opacity:0.98;fill:none;stroke:#302840;stroke-miterlimit:10;}
	.st5{fill:none;stroke:#000000;stroke-miterlimit:10;}
	.st6{fill:none;stroke:#E3BCA3;stroke-miterlimit:10;}
	.st7{opacity:0.44;fill:#E3BCA3;stroke:#E3BCA3;stroke-miterlimit:10;}
	.st8{fill:#976583;}
	.st9{opacity:0.21;fill:#E3BCA3;stroke:#E3BCA3;stroke-miterlimit:10;}
	.st10{fill:none;stroke:#F2B2EF;stroke-miterlimit:10;}
	.st11{fill:#B88170;}
	.st12{fill:none;stroke:#B88170;stroke-miterlimit:10;}
	.st13{fill:none;stroke:#FBDDEA;stroke-miterlimit:10;}
	.st14{fill:none;stroke:#E9759F;stroke-miterlimit:10;}
	.st15{fill:none;stroke:#8694CA;stroke-miterlimit:10;}
	.st16{fill:#EBD8FF;}
	.st17{fill:none;stroke:#858DB7;stroke-miterlimit:10;}
	.st18{fill:none;stroke:#F4A489;stroke-miterlimit:10;}
	.st19{fill:none;stroke:#6C5247;stroke-miterlimit:10;}
	.st20{fill:none;stroke:#5E749F;stroke-miterlimit:10;}
	.st21{fill:none;stroke:#7D8FCB;stroke-miterlimit:10;}
	.st22{fill:none;stroke:#957CA4;stroke-miterlimit:10;}
	.st23{fill:none;stroke:#A4ABF8;stroke-miterlimit:10;}
	.st24{fill:#3960AA;fill-opacity:0;}
	.st25{fill:none;stroke:#A3DDF0;stroke-miterlimit:10;}
	.st26{fill:none;stroke:#51618F;stroke-miterlimit:10;}
	.st27{fill:none;stroke:#B472B0;stroke-miterlimit:10;}
	.st28{fill:#C3569C;}
	.st29{fill:#D891B5;}
	.st30{fill:#E58CB0;}
	.st31{fill:#FBDDEA;}
	.st32{fill:#BD9590;}
	.st33{fill:#8AAAB5;}
	.st34{fill:none;stroke:#8AAAB5;stroke-miterlimit:10;}
	.st35{fill:#475780;}
	.st36{fill:none;stroke:#475780;stroke-miterlimit:10;}
	.st37{fill:none;stroke:#C09B80;stroke-miterlimit:10;}
	.st38{fill:none;stroke:#95787F;stroke-miterlimit:10;}
	.st39{fill:none;stroke:#D19AA9;stroke-miterlimit:10;}
	.st40{fill:#795D80;}
	.st41{fill:#F0B6B7;}
	.st42{fill:none;}
	.st43{fill:#A7D6F2;fill-opacity:0;}
	.st44{fill:#ECD0DC;}
	.st45{fill:#957CA4;}
	.st46{fill:#5E549A;}
	.st47{fill:#D19AA9;}
	.st48{opacity:0.51;fill:none;stroke:#928459;stroke-width:2;stroke-miterlimit:10;}
</style>
<path class="st0" d="M1015.1,665.2c0,0,20.1,123.9,67.8,175.8c3.8,4.1-4.2,23.7-43.5,62.9c-35.6,35.6-61.8,31.6-61.8,31.6
	l13.2-197.2c0,0,6.1-12.2,15.5-28.7C1013.2,697.4,1015.1,665.2,1015.1,665.2z"/>
<path class="st1" d="M908,638c0,0-38.5,47.2-49,126.2c-6.5,48.8-43.3,87.1-40.1,112.7c2,15.9,12,11.3,30.2,37.2
	c20.8,29.5,4.5,62,20.6,76.4c0,0,7.3-32.9,12.5-65.4c3.3-20.8,6.1-27.1,6.1-45.6C888.3,840.4,908,638,908,638z"/>
<path class="st1" d="M1094.4,859.2l5.3,24.2c0,0-29.9,95.8-100.5,120.9c-27.3,9.7-47.3,4.8-47.3,4.8l22.2-49.3c0,0,36-2.6,64.8-25.7
	C1067.5,911,1094.4,859.2,1094.4,859.2z"/>
<path class="st2" d="M889.1,809"/>
<path class="st3" d="M1104.8,971c5.3-17.2,26.1,67.2,26.1,67.2s-27.8,9.1-52.2,9.1c-24.4,0-34.5-6.7-34.5-6.7S1096.5,998,1104.8,971
	z"/>
<path class="st4" d="M938.7,527.8c0,0,57.4,22.3,49.7,220.6c-9.5,244-17.1,220.5-49.4,284.1c-7.6,15-32.4,53.6-32.4,53.6l-75.3-4.2
	c0,0,10.2-22.9,32.8-80.9c9.1-23.4,15.2-70.9,15.2-70.9s13.9-164.5,16.5-204.9c2.3-35.8,20.9-108,12.9-156.3L938.7,527.8z"/>
<path class="st5" d="M1118,1041.9c-2.4,24-3,37.4-3,37.4l-66.3,1.8l34.1-33.7C1082.9,1047.4,1104.1,1045.2,1118,1041.9z"/>
<path class="st6" d="M1126.3,752.5c-10.6-39.1,12.2-95.9,4.9-137.9c-9.7-51.3-38.3-60.7-75.6-74.1c-3.7-1.3-7.4-2.7-11.3-4.1
	c-9.9,59.3-1.4,92.6,16,114.8c18,23,42.1,57.3,19.5,106.7c-6.5,17.5,14.4,73.1,14.6,95.9c0.3,36.6,23.4,64.7,34.6,79.8l-20.3,36.3
	c2.5,6.8,8.4,22.2,13.8,36.1c1-9.3,2.1-18.1,3.4-26.9c1.3-8.5,2.7-16.9,4.2-25.7c1.7-9.4,3.6-19.2,5.8-29.8c2-10,4.3-20.7,6.8-32.6
	C1154.8,833.6,1141.9,809.8,1126.3,752.5z"/>
<g>
	<path class="st6" d="M957.4,354.2c0,0,0-26.6-5.2-36.5c-2.5-4.7-9.3-29.2-28.6-48.5c-24.5-24.5-65.7-5.5-65.7-5.5
		c-16.1,1.5-17.5,4.8-24.1,15.3c-7.2,11.4-10.4,25.7-23.4,25.7s-16.1,8.3-16.1,30.1c0,7.7,14.3,100,26.3,115.3
		c17.6,22.5,35.5,30.5,45.3,37.5c22.2,16,39,7.6,46.8-2c14.2-17.5,32.4-26.9,36.5-48C953.3,431.2,957.4,354.2,957.4,354.2z
		 M888.2,456c-17.1,1.6-10.7-10.6-37.2-14.5c-3.2-0.5,12.5-1.5,27.4-8.8c2.5-1.2,6.9,3.2,10,3.6c2,0.3,4.3-1.5,6.8-4.3
		c11.5,2.5,26.2,5.8,25.8,6C904.6,445.7,900.8,459.2,888.2,456z"/>
</g>
<path class="st7" d="M882.5,343c0,0,11.5,44.6,18.5,51.1c5.5,5,5.5,14.2-5,15c-2.6,0.2,8.7-3.3,3.9-12.2
	C892,382.3,882.5,343,882.5,343z"/>
<path class="st8" d="M876.7,406.2c4.4,1.8,4.2,3,4.2,3s-6.9,0.1-7.8-0.5C872,407.8,873.6,404.9,876.7,406.2z"/>
<path class="st8" d="M890.9,406.2c-4.4,1.8-4.2,3-4.2,3s6.9,0.1,7.8-0.5C895.6,407.8,893.9,404.9,890.9,406.2z"/>
<path class="st7" d="M872,395.3c0,0-6.8,1.6-7.6,6.3c-1.6,8.9,7,9,7,7.7c0,0.4-6.8-1.7-4.5-7.8C868,399,872,395.3,872,395.3z"/>
<path class="st9" d="M881.3,414.8c-0.9,5,2.1,11.8,3.5,15.2c1.9,4.8,4.3,2.6,4.6,0.6c0.4-2.4-1.6-8,0.3-14.5
	C891.2,411,882.2,410.1,881.3,414.8z"/>
<path class="st10" d="M751.4,545.7c0,0,31,49,21.7,101.9c-10,56.3-41.5,72.3,8.2,122c19.2,19.2,27.7,47.9,27.7,47.9l33.9-101.1
	c0,0-33.1-57-43.8-102.4c-10.7-45.4-26.1-77-26.1-77L751.4,545.7z"/>
<path class="st10" d="M798.1,921.7l-20.2,156l56,1.6l13.2-31.9c0,0-15.3-5.9-19.4-20.2c-10.4-36.7,3-39.7-4.1-64.8
	C816.4,937.4,798.1,921.7,798.1,921.7z"/>
<path class="st10" d="M921.9,1058.5c-1.4,0-12.9,24.9-12.9,24.9l142.1-2.2l31.8-33.9c-17.8,0-28.8-2-38.4-7.2
	C1015.6,1056.7,998.4,1058.5,921.9,1058.5z"/>
<path class="st10" d="M1009.5,529.9l34.7,6.6c0,0-10.6,77.4,7,101.2c29.5,39.9,51.1,70.1,31.2,111c-19.9,41-16.8,67.8-16.8,67.8
	s-10.3-3.5-29.1-59s-24.6-94.6-23.7-136.8C1013.7,581.4,1009.5,529.9,1009.5,529.9z"/>
<path class="st1" d="M817.4,445.3c0,0,4.7,5.5,6.9,8.5c3.9,5.3,34.2,62.3,38.3,68.3c33.4,48.8,50.1,62.8,50.1,62.8s0.8-0.7-1.5,3.7
	c-2.3,4.4-32.9,48.3-32.9,48.3l-16.7,29.8l-27.8-11.3L809,626.8l38.7,75.9l-4.9,15c0,0-37-55.7-51-111.3c-4.4-17.6-21-68.5-21-68.5
	s3.2-12.9,24.8-28.3c23.1-16.5,19.5-37,19.2-55.1C814.5,448.5,817.4,445.3,817.4,445.3z"/>
<path class="st11" d="M786,906.3c-5.1-8.8-6.2-16.7-2.8-27.7C784.5,890.1,785.5,899.7,786,906.3z"/>
<path class="st12" d="M850.1,734.3c-21.6,93.2-67.9,151.4-44,168.8c20.2,14.7,31.6,13.5,33.9,63.6c2.3,50.1,19,51.3,19,51.3
	l-12,29.4c0,0-28.1-6.8-24.2-53.8c2.3-27.2,2.9-38.1-20.1-65.7l0.3-1.2c0,0-4.9-6.8-9.8-36c-4.9-29.2,6.6-37.8,6.6-37.8
	s17.2-21.4,11.9-46.6c16-45.6,35-104.1,44.6-130.2c15-40.5,56.2-93.3,56.2-93.3l0.2,26.2C912.8,609.1,871.7,641.4,850.1,734.3z"/>
<path class="st13" d="M912.8,621.4v-12.8c0,0-24.2,20.5-46.6,71.3c-15.2,34.3-42.7,141.8-54.9,165.6c-12.9,25.3-24.1,47.3,5.6,69.5
	c28.2,21.2,19.7,37,20.6,60.6c1.6,40.9,21.5,42.5,21.5,42.5l2.2-4.8c0,0-14.2-6.5-16.3-50c-2-43.6-12.1-48.1-30.2-60.3
	c-28.7-19.5,18.5-50.1,40.3-154.5C875.5,650.8,912.8,621.4,912.8,621.4z"/>
<path class="st12" d="M910.2,630.8l2.3-9.4c0,0-14,2-36.4,52.8c-15.2,34.3-42.7,141.8-54.9,165.6c-12.9,25.3-29.7,52.8-1.2,67.3
	c22.7,11.6,23.7,40.4,24.7,64.1c1.6,40.9,16.6,42.2,16.6,42.2l4-12.7c0,0-8.4,0.5-10.4-43c-2-43.6-12.1-48.1-30.2-60.3
	C796,877.9,834.1,856,859,743.9C869.1,698.5,910.2,630.8,910.2,630.8z"/>
<path class="st14" d="M910.2,631.1c0,0-10.9-3-29.7,49.2c-6.9,19.2-19,46.7-25,76.1c-6.8,33.2-12,45.4-20.5,63.5
	c-16.3,34.8-41.6,69.2-8.1,83.1c23.6,9.8,27.1,40.5,28,64.2c1.6,40.9,10.4,35.1,10.4,35.1s5.8-8.3,4.5-10.9
	c-17.9-34.1,1.4-64.7-34.8-93.7c-20.6-16.5-22.2-30.3,6.9-77c17.9-28.7,12.4-49.2,24.1-82.5c9.7-27.5,32.3-84.9,42.1-96.1
	L910.2,631.1z"/>
<path class="st12" d="M935,1034.3c0,0,31.2,1.9,55.9,0.4c27.3-1.7,63.9-31.4,76.2-43.7c23.3-23.3,48-80,48-80l14.5,22.2
	c0,0-24.6,47.2-44.9,71c-20.3,23.8-50.4,53.5-97.6,54.6c-28.5,0-65.9,0.1-65.9,0.1L935,1034.3z"/>
<path class="st13" d="M946,1021.5c0,0,13.2,3.9,37.9,2.4c27.3-1.7,57.4-22.2,70.8-33.3c18.7-15.6,35-44.5,45-64.5
	c6.3-12.4,10.4-21.4,10.4-21.4l4.9,6.3c0,0-23.8,55.8-44.1,79.6c-20.3,23.8-62.6,45.2-91.1,47c-28.5,1.8-41.5-3.4-41.5-3.4
	L946,1021.5z"/>
<path class="st12" d="M950.3,1013.4c0,0,0.5,0,28,0c27.4,0,64.3-24.3,76.6-36.5c23.3-23.3,49.3-83.1,49.3-83.1l5.9,11
	c0,0-21.1,48.3-41.4,72.1c-20.3,23.8-57.4,45.9-85.8,47.7c-28.5,1.8-37.1-2.7-37.1-2.7L950.3,1013.4z"/>
<path class="st14" d="M952.9,1008.2c0,0,8.2,2,19.8,1.4c27.3-1.4,66.7-30.9,79-43.2c23.3-23.3,48-83.2,48-83.2l4.6,10.4
	c0,0-22.7,52.5-43,76.3s-59,44.1-87.4,46.3c-9.3,0.7-23.5-2.9-23.5-2.9L952.9,1008.2z"/>
<path class="st15" d="M970,960.2c0,0,23.2,1.2,46.4-10s41.9-34.4,57.7-52.8c15-17.3,20-30.6,20.3-40.4c-1.9-7.5-11.4-21.2-11.4-21.2
	s-13.8,35.7-43.8,65.7c-32.9,32.9-63,32.6-63,32.6L970,960.2z"/>
<path class="st16" d="M978.8,940.1c0,0,12.3-3.2,22.8-8.8c22.8-12,41.9-34.4,57.7-52.8c15.5-17.9,20.6-32.1,23.5-41.6
	c0.8-2.7-6.4-10.2-6.4-10.2s-19.6,43.4-38.9,64.1c-27.4,29.3-56.4,39.2-56.4,39.2L978.8,940.1z"/>
<path class="st17" d="M967.9,936.8c0,0,12.3-3.2,22.8-8.8c22.8-12,39.7-28.9,55.5-47.3c15.5-17.9,27.7-44.1,30-54
	c0.6-2.3-10.6-10.1-10.6-10.1s-21,46.6-40.3,67.2C997.9,913.1,973,921,973,921L967.9,936.8z"/>
<path class="st1" d="M987.3,478.1c1.5,1.6,3,3.1,3.2,3.3l5.9,6.1c19.5,17.3,16.5,122.4,16.5,122.4s-20.8-50.7-45-65.6
	c-27-16.6-26.6-19.1-26.6-19.1c-11.7-18.4-14.3-41.5-10.8-52.8c2.4-7.9,5.7-11.3,5.7-11.3s18.7-11,47.1,12.6c0,0,0.8,0.8,1.8,1.9
	L987.3,478.1z"/>
<path class="st18" d="M823.3,882.7c12.2,5.1,23.9-17,30.4-39.5c8.2-28.3,12.9-38.8,8.6-70.7c-0.2-1.5,13.2,43.8,6.8,65.6
	c-7.1,24.4-15.5,34.7-30.4,42.4c0,0,26.3-7.2,37.7-39.5c10-28.2,20.8-67.5,20.8-67.5l0.2,16.5c0,0-11.3,51.5-16.3,63.5
	c-14.9,35.8-43.2,31.6-41.1,32.7c6.4,3.1,24.7,0,31.6-6.9c10.5-10.5,18-28.9,18-28.9l-1.3,11.1c0,0-1.6,18.1-11.7,27
	c-10.8,9.4-35,8.2-35,8.2s16.5,13.1,36.6,2c4-2.2,8.8-6.7,8.8-6.7l-0.7,10.2c0,0-3.1,8-15.2,11.4c-11.1,3.1-26.1-10.5-26.1-10.5
	s8.8,20.5,20.3,24.4c9.6,3.2,19-0.7,19-0.7l-4.6,13.3c0,0-13.2-5.6-30.5-24.3C832.7,897.9,818.4,880.7,823.3,882.7z"/>
<path class="st19" d="M880.4,934.8l-3.9,28.6c0,0-27.6-9.2-23.2-49.3c1.8-16.1-11.1-16.8-11.1-16.8s19.8-5.8,17.7,15
	C857.5,935.7,880.4,934.8,880.4,934.8z"/>
<path class="st19" d="M888.3,893.1l-3.9,28.6c0,0-27.8-24.9-19.1-45.8c6.2-15-30.3-8.8-30.3-8.8s35.8-20.4,39.2,7.1
	C877.4,899.7,888.3,893.1,888.3,893.1z"/>
<path class="st19" d="M890.3,844.8l-2,29.4c0,0-21.3-16.5-18.3-31.6c4-20.3-20.8-22.5-20.8-22.5s22.8-1.9,27.8,12.9
	C882,847.8,890.3,844.8,890.3,844.8z"/>
<path class="st20" d="M907.1,785.3c0,0,2.5,39.9,54.4,101.4c31.8,37.8-14.3,126.1-14.3,126.1s-39-70.3-45.4-113.9
	C895.5,855.2,907.1,785.3,907.1,785.3z"/>
<path class="st20" d="M945.8,529.3c0,0,5.9,80.6-9.5,114.2C896.4,730.4,988.7,804,988.7,804s-60.4-76.6-16.3-142.7l0,0
	C1014.1,598.9,945.8,529.3,945.8,529.3z"/>
<path class="st21" d="M946.1,529.9c0,0,13.6,17.8,16.4,22.7c3.8,6.6,7.2,13.1,10.1,19.4c12.5,27.7,15.4,52.9,4.8,76
	c-1.3,2.9,14.2-28.3-7.4-79c-2.8-6.5,10.4,32.9,9.5,47.2c-1.8,28.3-6.8,40.1-21,65.2c-1.5,2.6,20.4-37.7,17.8-65.6
	c-3.5-38.4-20.1-66.2-20.4-67.6c-1.4-6.2,23.4,50.4,2.9,89.8c-10.2,19.6-6.4,60.2-5.5,75.7c0.1,2-8.6-57.5,1.1-75.7
	c21.8-41.2-1-85.5-1-85.5c0,0,1.6,2.9,1.6,3.1c12.2,61.3,0.9,59.3-7.9,96.5c-15.6,66.5,33.8,142.7,33.8,142.7s-43.5-54.9-38.6-125.8
	c0.6-8,1.3-14.6,2.9-19.9c8.7-28.6,14.3-39.3,10.8-71.3c-0.9-8.4-5.6-32.6-5.6-32.6s8.5,72.5-5.1,96.6
	c-14.8,26.2,4.3,112.2,4.3,112.2s-24.5-73.4-6.6-114.9c14.7-34,5.4-83.2,7.4-82.8c1.2,0.2,3.4,36.7-2.9,61.8
	c-7.6,30.1-14.7,36.9-14.7,60.7s3.7,39.3,3.7,39.3s-9-30.7-3.7-60c1.3-7.2,12.7-30,15.3-53.4C952,569,946.3,533.3,946.1,529.9z"/>
<path class="st21" d="M948.6,1016.5c0,0,12.8-21.9,15.4-27.2c3.5-7.2,5.2-14.1,7.6-20.7c10.3-29,8.8-52.9-9.4-71.2
	c-2.3-2.3,23.9,22,6.7,74.7c-2.2,6.8,6.5-33.1,2.4-46c-8-25.6-16.8-35-40-54c-2.4-2,33.6,28.9,36,55.3c3.4,36.3-12,66.5-12.2,67.9
	c-0.5,6.1,15.6-48-15.1-82c-19.4-21.4-22.1-70.1-24.2-84.6c-0.3-1.8-0.5,56.6,18.9,84.5C962.4,952.5,951,992,951,992
	c0,0,1.4-3.1,1.5-3.3c3-59.8-10.9-54.7-29.7-86.5c-33.5-56.7,12.9-140.1,12.9-140.1s-43.2,62.2-22.5,126c2.3,7.2,4.6,13.1,7.7,17.5
	c16.9,23.8,26.3,32.1,28.3,62.5c0.5,8-0.5,31.5-0.5,31.5s-3.9-69-26.3-87.3c-24.2-19.9-15-108.1-15-108.1s-18.6,78.2,12.7,111.3
	c25.6,27.1,23.8,74.9,26.4,74c1.5-0.5-3.2-34.7-16.3-56c-15.8-25.5-23.4-29.4-28.2-51.3c-4.8-21.8-0.5-37.6-0.5-37.6
	s-10.8,31,1.9,56.4c3.1,6.3,22.3,24,30.4,44.8C945.9,977.2,944.9,1017,948.6,1016.5z"/>
<path class="st22" d="M990.8,740.4l37.5,20.4c0,0-19.1-3-22.5,11.7c-3.3,14.6,5,14.6,16.6,9.5c7.1-3.8,12.2-10.1,12.2-10.1
	c-1.7,8.8-7.5,19.3,4.9,31.6c6.4,6.3-14.6-3.5-24.8-4c-10.5-0.5-9.3,14.1,5.4,19.3c15,5.4,21.7,9.9,21.7,9.9s-38.9,40.9-59,33.9
	L990.8,740.4z"/>
<path class="st23" d="M926.3,547c0,0-10.1,8.4-13.7,37c-7.4,58.8-14.5,76.7-14.5,125.6c0,48.8-0.6,87.2-0.6,87.2s23.6-46.8,30.9-100
	C939.7,613.3,926.3,547,926.3,547z"/>
<path class="st23" d="M941.1,525.2c-1.2,1.7,73.3,64.9,31.9,159.7c-32.7,75-77.9,92.2-83.7,157.2c-5.8,65,0,28.5,0,28.5
	S910,820.5,944,785c34-35.4,59.8-47.8,67.5-90.7c7.7-43,7.4-69.3-5.2-101.6C988,545.9,947.2,530.3,941.1,525.2z"/>
<path class="st23" d="M987.5,788.5c0,0-1.1,37.4-29.8,60.8c-21.8,17.8-43.3,22.2-58.6,48.5c-26,44.7-22.5,65.6-22.5,65.6
	s10-29.7,44.3-50.6c34.3-20.9,52.6-25.7,60.7-43.5C989.6,851.4,987.5,788.5,987.5,788.5z"/>
<path class="st24" d="M980.2,836.9c0,0-0.3,11.9-26.4,32.4c-19.9,15.6-41.2,27.9-53.6,42c-21,23.9-19,28.7-19,28.7
	s10.7-14,42.9-36.8c32.2-22.9,50.2-33.6,56.2-42C986.3,852.9,980.2,836.9,980.2,836.9z"/>
<path class="st23" d="M861.7,1011.8c0,0,50.8,19.6,75.3,16.3c6.8-0.9-10.9,29.6-18.3,31.2c-23.6,5.1-71.6,2.5-71.6-12L861.7,1011.8z
	"/>
<path class="st23" d="M872.7,974c0,0,43-28.9,110.3-74.9c4.4-3-7.3,63.7-18.8,79.7c-28.9,40-98.8,21.4-98.8,21.4L872.7,974z"/>
<path class="st20" d="M897.2,795.6c0,0-4.1-48.4,0.2-93.1c3.9-40.9,15.9-85.3,15.9-85.3s-8.8,48.5-12.2,82.6
	c-1.7,16.7-1.3,81.8-1.3,81.8s2.7-56.7,5.2-84.3c2.9-31.7,15.8-99.5,15.8-99.5s-9.2,71.7-11.7,95.7c-2.3,22-8,88.1-8,88.1
	s12.5-66.6,16.7-88.8c1.7-9.1,10-129.4,10-129.4s-1.5,97.1-8.8,143c-3,18.9-16.3,75.1-16.3,75.1s18.8-48.6,21.6-81.8
	c2-23.5,7.7-98.1,7.7-98.1s2.9,59.4-6.7,111.1C915.7,764.4,896.9,800.2,897.2,795.6z"/>
<path class="st20" d="M897.4,838.2c-10.2,13.4-6.9,42-9.1,41.8c-1.2-0.1-2-22.9-1.6-26.4c1.6-17,2.1-26.1,9.3-42
	c4.6-10,6.6-14.4,18.8-32.9c31.7-47.9,44.9-67,56.4-88.1c13.6-24.9,15.7-51.1,14.2-71.9c-1.8-24-8.5-41-8.5-41s11.3,36.3,11.3,55
	c0,28.8-10.5,61.1-47.6,111.2c-31.4,42.5-46.7,85.8-46.7,85.8s22.5-39.2,30.5-50.9c22.3-32.8,64.1-78.1,69-116.8
	c5.3-41.8-9.5-98.6-9.5-98.6c12.5,32.6,14.5,86.3,9.5,112.9c-5.4,28.9-52.8,81.8-68.3,105.3c-28.4,43.1-29.2,51.6-29.2,51.6
	s59-73.6,76.3-92.9c64.7-71.8,25.3-157.5,25.3-157.5s37.5,78.8-8.9,145.1C988.7,727.9,932.8,791.8,897.4,838.2z"/>
<path class="st20" d="M873.5,974.2c0,0,1.9-31.3,14.7-57.4c12.8-26.1,25.1-45.5,44.3-52c32.8-11.2,49.9-42.6,49.9-42.6
	s-21,39.3-54.5,48.4c-23.6,6.4-39.5,53.2-39.5,53.2s23.6-48.1,47.9-51.7c27.2-4,48.5-51.9,48.5-51.9s-19.5,50.7-44.9,54.1
	c-29.6,3.9-43.3,42-54.3,61.5c0,0,26.7-55.6,48.6-55.6c19.7,0,29.5-17.6,38.4-30.9c8.9-13.3,15.4-35.1,15.4-35.1
	s-10.4,44.4-32.6,61.9c-6.9,5.5-11.2,5.7-22.8,7.5c-18.2,2.8-35,36.7-41.3,46.6c-0.4,0.6,19-37.9,39.6-41.5
	c66.2-11.5,55.2-59.7,55.4-58.6c4.4,26.3-2.6,48.9-53.7,63.6C898.4,903.3,873.5,974.2,873.5,974.2z"/>
<path class="st20" d="M865.3,1001.8c0,0,2.4-16.1,5.7-20c11.8-14.1,46.4-42,65.3-45c19.6-3.1,36.1-25.8,36.1-25.8
	s-11.7,29.5-44.5,34.2c-23.1,3.3-54.4,40-54.4,40s28.4-31.7,52.2-33.5C952.3,949.6,970,923,970,923s-6.7,31.8-31.5,33.6
	c-28.9,2-51.3,23-62,33c0,0,23-27.6,56.1-26.2c36.3,1.5,43.7-41.7,43.7-41.7s7.2,42.8-51.7,49.3c-17.7,2-42,18.1-48.1,23.3
	c-0.4,0.3,27.7-12,47.9-13.8c64.7-5.9,55.6-68.8,55.8-68.3c4.3,13.6-4,70.8-53.9,78.4C892.6,995.6,865.3,1001.8,865.3,1001.8z"/>
<path class="st20" d="M847,1048.1c0,0,3.4-10.3,5.1-12.4c6.5-8.2,7.4-12.2,29-9.8c8,0.9,35.3,2.3,35.3,2.3s-17.3-0.1-41.6-0.8
	c-17.1-0.5-21.3,16.2-21.3,16.2s10-14.4,27.6-12.7c27.6,2.8,45.3-0.9,45.3-0.9s-23.4,7.2-41.6,4.9c-13.8-1.7-19.2,2.4-29.2,10.3
	c0,0,9.3-7.7,30.2-6.7c1.6,0.1,3.2,0.2,5,0.4c2.7,0.3,5.3,0.5,7.8,0.5c21.6,0.2,32.6-9.4,32.6-9.4s-11.1,11.1-32.8,11.1
	c-37.3,0-41.7,5.3-42.8,5.6c-0.3,0.1,21.7-0.1,36.6,0.6c10.8,0.6,17.9-1.9,24-3.2c20.9-4.5,20.1-13.6,20.2-13.5
	c2.8,4.7-1.4,16.1-37.5,24.6C876.9,1060.4,847,1048.1,847,1048.1z"/>
<path class="st12" d="M793.2,890.8c4.9,29.2,9.8,36,9.8,36l-0.3,1.2c-1.1-1.3-2.2-2.6-3.4-4c-5.8-6.7-10.3-12.3-13.3-17.6
	c-0.6-6.7-1.5-16.3-2.8-27.7c1.4-4.7,3.7-10,6.8-16.1c4.9-9.7,12.8-31,21.7-56.1c5.3,25.2-11.9,46.6-11.9,46.6
	S788.3,861.6,793.2,890.8z"/>
<path class="st22" d="M813.4,526.7c-3.7-9.8-4.5-16.7,2.7-28.8c8.1-13.4,1.3-52.4,1.3-52.4s16.3,32.3,6.2,51.1
	c-15.8,29.1,3.7,38.7,13.4,50.5c8.4,10.2,6.9,51.4,45.3,54.4c0,0-37.6,2.2-46.4-43.4C832.8,541.7,818.9,541.3,813.4,526.7z"/>
<path class="st22" d="M976.8,474.5c0,0-31.5,7.4-37.3,26.3c-9.8-21.1-0.5-38-0.5-38S957.9,457.3,976.8,474.5z"/>
<path class="st22" d="M995.1,492.1c-6-6.6-7.3-9.9-17-15.9c0,0-1.3,30.2-13.9,62.6C982.1,526.3,995.1,492.1,995.1,492.1z"/>
<path class="st25" d="M967.5,538.5c10.5-1,24.9-35.2,24.9-35.2L980,549.8C980,549.8,965,538.7,967.5,538.5z"/>
<path class="st22" d="M994.9,564.6c9.5-5.3,13.9-18.7,13.7-32.4l3.5,69C1012.1,601.2,997.4,570,994.9,564.6z"/>
<path class="st22" d="M776.9,535.4c-0.2-3.3,11.6-20.4,11.5-16.1c-0.7,61.3,26.1,102.5,72,109.3C813.7,629.8,795,599.3,776.9,535.4z
	"/>
<path class="st22" d="M822.8,560.3c-0.7-3.3,4.1-8.2,4.7-4.4c6.6,41.9,40.3,63.9,40.3,63.9S830.9,601.7,822.8,560.3z"/>
<path class="st25" d="M799.8,556.2c-1.1-3.7,6.5-17,7.4-12.7c12.7,65.4,52.6,79,52.6,79S819.2,623.8,799.8,556.2z"/>
<path class="st10" d="M790.1,591.5c26.4,52.2,40.4,62.1,72.6,69.7l-17.9,47.9c0,0-16.6-25.3-29.7-52.2
	C804.6,635.5,790.1,591.5,790.1,591.5z"/>
<path class="st26" d="M820.6,449.1c0,0,24.3,36.7,31,63c7.1,28.1,34.2,61.8,58,73.7c0,0-57.7-26.2-66.2-74
	C836.9,474.9,820.5,449.5,820.6,449.1z"/>
<path class="st27" d="M820.6,449.1c0,0,15.5,25,11,53.2c-3.4,21.1,18.5,16.1,25.5,65.2c1.9,13.4,24.2,19.6,39.1,22.1
	c-30.7,0.3-40.7-4.3-51.4-45.3c-4.7-18.3-20.6-22.3-16.3-41.4C834.5,476.4,820.5,449.5,820.6,449.1z"/>
<path class="st28" d="M850.8,441.6c-0.8,0,2.5-0.9,7.2-1.7c7.3-1.3,22-1.6,26.4,0.5c2,1,5.1,3.3,8.8-0.5c6.9-6.9,28.2-2.3,28.2-2.3
	s-5.6-0.2-8.6,0.1c-16.9,1.5-16.2,7.8-23.8,7.8c-8.2,0-10.8-8.3-33-4.5C856,441,855.4,441.8,850.8,441.6z"/>
<path class="st29" d="M876.4,432.4c6.2-2.7,10.1,4.1,11.9,3.7c2.2-0.6,6.7-7,9.2-5.9c9.3,3.9,23.9,7.4,23.9,7.4s-16.3-3.3-24,1.3
	c-7.7,4.6-9.3,4-12.1,2.8c-10.7-4.8-24.8-2.4-31.2-0.9c-2.1,0.5-3.4,0.9-3.4,0.9S864.3,437.7,876.4,432.4z"/>
<path class="st30" d="M850.7,441.7c0,0,8-0.2,17.2,7.5s23.5,13.3,36.4,1.3c12.5-11.7,17.5-12.8,17.5-12.8s-9.8-1-18.6,1.3
	c-6,1.7-7.2,5.5-14.1,5.5c-4.7,0-10.2-2.6-14.4-3.8C863.6,437.6,850.7,441.7,850.7,441.7z"/>
<path class="st31" d="M991.3,331c0,0-2.3,8.3,2.6,22.3c2.4,6.9,6.4,14.2,10.5,20.4c4.2,6.3,8.7,11.5,11.7,13.8
	c6.1,4.5,11.8,7.1,11.8,7.1s-14.3-0.7-25.8-18.4C985.1,350.2,991.3,331,991.3,331z"/>
<path class="st32" d="M1052.5,382.5l12.4,25.7L1052.5,382.5z"/>
<path class="st33" d="M1045.2,388.9c0,0,6.5-0.7,9.8,6.5c3,6.5,1.6,15.4,1.6,15.4s-0.9-6.8-2.6-12.8c-0.6-2.1-2.4-4.7-4-6.2
	C1047.8,389.8,1045.3,388.9,1045.2,388.9z"/>
<path class="st33" d="M1030.8,401.8l9,9.6L1030.8,401.8z"/>
<path class="st33" d="M1036.8,404.4c-2.4-1.8-5.5-3.6-8.9-3.6c-0.4,0,3.6,1.4,6.8,4.4c3.2,3,5.6,7.6,5.6,7.6
	S1038.7,405.9,1036.8,404.4z"/>
<path class="st33" d="M1033.5,407.4c-2-2.3-7.7-4.7-13.6-5c-0.4,0,8.7,2.8,11.9,5.8c3.2,3,5.3,8.5,5.3,8.5
	S1036.6,411.1,1033.5,407.4z"/>
<path class="st33" d="M1030.8,412.3c-3.3-2.6-8.4-6.9-18.3-6.9c-0.3,0,7,2.2,11.8,5.3c3,2,5.1,6.5,5.8,8.3
	c3.4,9.2-4.6,17.1-2.7,33.2c1.9,15.7,15.9,34.5,15.9,34.5s-11.9-21.7-12.5-36.3C1030.1,432.8,1039.1,419,1030.8,412.3z"/>
<path class="st33" d="M1029.7,418.1"/>
<path class="st34" d="M1076.7,448.3c28,23.7,41.1,22.8,41.1,22.8s-22.7,1.4-49.1-27.1c-14-15.1-1.5-41.1-9.5-55.4
	c-3.7-6.6-13-8.8-13-8.8s14.9-1.2,18.7,12.5C1069.8,409.9,1055.6,430.4,1076.7,448.3z"/>
<path class="st35" d="M945.6,948.6"/>
<path class="st36" d="M751.4,315.2c0,0-13,8.4,1.8,29.1c12.1,16.8,16.1,24.8,8.6,35.9c-8.7,12.9-9.5,24.2,2,40.3
	c7.3,12.4,11,29.5-3.8,39.1c-13.1,8.5-13.7,22.8-13.7,22.8s6.6-11.3,18.7-19.8c7.4-5.2,15.9-21.7-0.9-45.7
	c-14-21.7,1.6-35.7,1.6-35.7s13.9-12.3-11.6-43.2C747.9,329.4,751.4,315.2,751.4,315.2z"/>
<g>
	<path class="st6" d="M720,802c6.4-15.6,24.1-88.5,34.4-106.5c6.2-10.8,5.5-10.1,11.2-18.5c25.9-67.9-12.7-128-13.7-131.6
		c0,0-9,3.1-15.5,5.6c-2,0.8-3.7,1.5-4.9,2c-7,2.7-48.6,21.2-49.5,86.2c-1,69.4,3.4,76.5-13.9,122.4c-27.7,73.5-9.8,114-4.1,139.3
		c8.8,39,54.5,146.5,65.8,172.9l0,0c1.6,3.8,2.6,5.9,2.6,5.9l2.7-0.7l41.5-0.6c0,0-35.2-153.6-65.6-202.4
		C706.2,855.1,712,821.5,720,802z"/>
</g>
<path class="st37" d="M913.1,263.8c0,0-16.7-15.6-32.7-20.3c-21-6.2-49.8-7.3-60.6,17.3c-8.8,20-9.2,31.5-33.1,37.6
	c-23.2,6-27.5,25.3-14.5,42.7c14.3,15.9,18.5,31.1,7.1,42.7c-12.3,12.6-12.8,27.2-1.4,43.5c10.7,15.3,3.3,33-1.2,40.7
	c-5.1,8.5-17.3,17.6-20.6,22.2c-9.9,13.7-11.1,21.9-8.5,56.2c0.2,2.4-1.8-45,18.6-61.7c26.8-22.1,22.2-48.1,13.7-60.4
	c-5.6-8.1-10.1-21.1-3.3-30.2c13.5-18.2,19-26.1,0-50.2c-21-26.6,2.6-41,10.3-42.3c17.3-3.4,29.1-16.5,33.3-32.5
	c4.2-15.3,14.2-25.3,36.1-25.6C889.9,243.6,913.1,263.8,913.1,263.8z"/>
<path class="st37" d="M912.5,263.7c0,0-1.9-18.7-35.8-30.8c-23.1-8.2-54.5-1.7-65.2,22.9c-8.8,20-12.9,28.6-35.4,35.7
	c-22.1,7-27.2,26.9-16.1,45.2c11.1,18.3,19.6,32.5,11.5,45.7c-8.4,13.9-8.8,21.8-1.6,40.4c5.1,13.1,11.1,28-17.3,54.5
	c-12.3,11.5-16,44.4-8.1,69.6c0.7,2.3-7.3-51.1,16.8-69.4c27.6-21.1,18.2-46.5,10.1-59c-4.6-7.2-1.4-25.7,3.8-32.8
	c12.3-17,7.3-25.2-6.9-45.2c-19.4-27.5,4-42.5,12.8-43.8c13.5-2.1,20.1-7,30.6-29.5c6-13,18.3-36,51.2-32.6
	C897.3,238.3,912.5,263.7,912.5,263.7z"/>
<path class="st38" d="M912.1,262.4c0,0-7.4-24.7-33.9-33.7c-25.2-8.6-58.2-3-71.6,31.1c-4.6,11.7-13.4,21.7-30.4,28.8
	c-32.7,13.6-32.1,38.9-18.3,55.6c12.4,14.9,19.9,25.6,11,36.2c-10.2,12.6-11.5,21.8-2.1,41.3c2.6,5.4,12.6,27-11.4,47
	c-25.5,21.3-16.6,63.4-12.1,77.9c0.7,2.3-12-49.2,10.3-69.6c23.1-21.2,24.8-34.6,20.5-45.5c-4.3-10.9-14.2-26.4-6.7-41.1
	c7.8-15.4,20.2-18.7-4.3-48.3c-19.6-23.8,0-47.4,12.5-49.6c18.8-3.4,29.3-18.5,34.1-33.1c3.4-10.5,14.9-29.1,48-29.1
	C893.5,230.2,912.1,262.4,912.1,262.4z"/>
<path class="st38" d="M912.9,262.2c0,0-10-32.7-40.2-41.1c-18.7-5.2-59.8-1.3-73.3,32.9c-4.6,11.7-16.6,23-33.7,30.1
	c-32.7,13.6-34.7,41.2-20.9,57.8c12.4,14.9,19.9,29.5,12.8,38.3c-10.2,12.6-5.2,23.5,1.9,42c2.2,5.6,10,24.2-14,44.2
	c-25.5,21.3-7.2,67.4-2.7,81.9c0.7,2.3-16.8-54,5.5-74.4c23.1-21.2,22.9-34,18.5-44.9c-4.3-10.9-14.4-26-7-40.7
	c7.8-15.4,19-15-6.9-45.3c-20-23.5,2.9-52.3,15.4-54.5c18.8-3.4,30.7-16.3,35.4-30.9c3.4-10.5,21-36.5,54.1-36.5
	C893.7,220.9,912.9,262.2,912.9,262.2z"/>
<path class="st38" d="M913.6,262.1c0,0-11.7-42.6-51.3-46.3c-19.4-1.8-61,1.3-74.4,35.4c-4.6,11.7-13.2,20.1-30.2,27.2
	c-32.7,13.6-49,54.5-35.2,71.2c12.4,14.9,10,33.6,2.8,42.4c-10.2,12.6-12.8,16.1-0.4,33.3c3.5,4.9,18.9,28,2.6,39.6
	c-36.1,25.6-18.4,82.6-13.9,97.1c0.7,2.3-21.1-65.7,7.2-85.7c29.9-21.2,17.6-39.8,10-48.7c-8.4-9.9-12.5-22-6.6-28.9
	c11.1-13.2,17.7-17.9,1.6-52.8c-11.5-25,21-58.3,33-62.6c19.4-7,27.1-15,31.9-29.7c3.4-10.5,21.5-32.9,54.7-34.3
	C904,216.4,913.6,262.1,913.6,262.1z"/>
<path class="st37" d="M913.7,262.7c0,0-9.6-40.5-49.2-44.2c-19.4-1.8-61,1.3-74.4,35.4c-4.6,11.7-13.2,20.1-30.2,27.2
	c-32.7,13.6-46.9,52-33.8,69.2c10.3,13.6,8.6,35.5,1.5,44.3c-10.2,12.6-11.7,14,0.7,31.2c3.5,4.9,20.9,31.9-0.8,45.3
	c-32.8,20.3-16.1,78.9-11.6,93.4c0.7,2.3-21.1-65.7,7.2-85.7c29.9-21.2,18.6-40.8,11-49.7c-8.4-9.9-13.5-21-7.6-27.9
	c11.1-13.2,21.6-25.1,1.6-52.8c-16.1-22.3,17.4-57.5,29.4-61.8c19.4-7,30.7-15.8,35.4-30.5c3.4-10.5,21.5-32.9,54.7-34.3
	C906.2,219.2,913.7,262.7,913.7,262.7z"/>
<path class="st34" d="M914,263c0,0-5.1-40.7-44.7-44.5c-19.4-1.8-61,1.3-74.4,35.4c-4.6,11.7-13.2,20.1-30.2,27.2
	c-32.7,13.6-49.8,52.8-36,69.4c12.4,14.9,10.8,35.3,3.7,44.1c-10.2,12.6-11.7,14,0.7,31.2c3.5,4.9,20.9,31.9-0.8,45.3
	c-32.8,20.3-16.1,78.9-11.6,93.4c0.7,2.3-21.1-65.7,7.2-85.7c29.9-21.2,18.6-40.8,11-49.7c-8.4-9.9-13.5-21-7.6-27.9
	c11.1-13.2,17.4-26.7,1.6-52.8c-14.3-23.5,17.4-57.5,29.4-61.8c19.4-7,30.7-15.8,35.4-30.5c3.4-10.5,21.5-32.9,54.7-34.3
	C911,219.2,914,263,914,263z"/>
<path class="st39" d="M914.3,263.3c0,0-1.1-41.1-40.7-44.9c-19.4-1.8-61.4,1-74.8,35.2c-4.6,11.7-12.8,20.4-29.9,27.5
	c-32.7,13.6-49.8,52.8-36,69.4c12.4,14.9,10.8,35.3,3.7,44.1c-10.2,12.6-11.7,14,0.7,31.2c3.5,4.9,20.9,31.9-0.8,45.3
	c-32.8,20.3-17.2,71.8-12.7,86.3c0.7,2.3-20-58.5,8.3-78.6c29.9-21.2,17.4-44.4,9.8-53.3c-8.4-9.9-8.6-23.8-2.7-30.8
	c11.1-13.2,8.1-18.8-4.9-54.9c-7.1-19.8,17.7-49,29.7-53.3c19.4-7,31.5-15.8,36.3-30.5c3.4-10.5,21.2-34.2,54.4-35.7
	C913.4,217.8,914.3,263.3,914.3,263.3z"/>
<path class="st39" d="M912.6,261.9c-6.5-9.4-15-29.9-44.4-35.2c-32.1-5.8-52.6,11.4-61.9,34.8c-7.2,18.3-25.7,27-36.8,31
	c-12,4.2-30.9,27.7-11.3,51.5c24.5,29.7,12.9,30.2,5.1,45.6c-7.4,14.7,6.2,27.8,7.8,45.1c1.1,12.1,3.7,18.3-21.8,41.9
	c-17,15.8-5.6,72.9-6.3,70.6c-4.5-14.5-16.7-58.7,8.8-79.9c24-20,15.1-37,12.9-42.6c-7.2-18.6-12.5-30.9-1.5-42.8
	c11-11.9,2.6-22.8-9.8-37.7c-13.8-16.7-10.4-44.8,14.3-56.8c16.6-8,29.9-19.6,33.9-27.5c13.7-27.2,28.7-43.6,69.5-38.2
	C899.4,227.3,910.8,256.9,912.6,261.9z"/>
<path class="st38" d="M912.9,262.6c0,0-16.1-19.2-36.3-25.1c-22.3-6.5-51.3-1.5-62.8,23.1c-9.4,20-9.5,29.1-34.8,36.1
	c-17.8,4.9-31.8,24.4-2,57.3c7.4,8.1,6.2,21.6-0.6,29.9c-12.2,14.7-10.7,27.2-0.1,44.8c8.2,13.6,8.9,29.1-11.3,47.1
	c-29.4,26.2-23.7,58.6-18.3,71.3c1,2.3-8.6-43.4,19.4-67.4c24.2-20.7,20.4-42.4,9-59.2c-4.9-7.2-5.7-22.6-0.3-29.7
	c13.1-17,18-24.1-1.7-48.8c-21.7-27.2,4.5-39.7,15.5-43.6c11.6-4.2,18.5-4.8,29.5-31.3c10.6-25.6,25.2-28.5,40.5-28
	C888.8,239.8,912.9,262.6,912.9,262.6z"/>
<path class="st38" d="M950.8,234.9c29.9,16.3,57,42.3,62.5,87.9c2.2,17.8,10.3,50.5,35.9,49.3c17.9-0.9,25.2,19.9,24.2,42.6
	c-1.5,31.3,11.2,42.7,44.3,55.5c3.2,1.2-59-15.8-48-57.3c2.1-7.9,0.3-37.7-22-36.3c-16.3,1-38-16.3-39.2-50.2
	c-0.7-20-16.9-56.9-51-83.5c-29.2-22.8-71.2-19-70.1-22C887.3,220.9,911.5,213.5,950.8,234.9z"/>
<path class="st37" d="M1007.7,328.4c2.2,17.8,12,47,37.6,47c21.8,0,25.8,16.7,22.6,39.4c-4.4,31.1,29.6,47.9,45.8,53.8
	c3.2,1.2-56.3-8.7-50-55.5c2.1-15.7-1.2-36.4-22.5-33.6c-26.7,0-35.7-32.2-36.9-66c-1-27.4-36.5-61.3-37.2-62
	c-12.6-5.2-22.3-15.4-48.1-13.2C954.9,227.3,1011,263.5,1007.7,328.4z"/>
<path class="st40" d="M1073.7,458.2"/>
<path class="st13" d="M918.5,256.6c47.1,2.6,74,51.6,66.4,80.4c-11.8,44.8,7.5,59.5,26.4,60.3c25.2,1.1,34.7,12.6,26.4,33.7
	c-4.7,12,4.2,42.6,14.1,56.9c3.8,5.5-26.6-23.9-15.7-65.5c2.1-7.9-0.1-19.2-18.3-20.2c-16.3-0.9-27.2-3.9-36.2-20.8
	c-6.3-11.8-4.4-29.9,0.5-46.3c3.1-10.3,1.4-33.1-17.4-54.1C949.4,264.1,916.8,256.5,918.5,256.6z"/>
<path class="st38" d="M917.3,255.1c62.8-9.3,89.5,34.4,89.3,64.2c-0.3,38.7,14.4,57,30.5,57.4c19.2,0.5,17.8,35.1,9.5,56.2
	c-4.7,12,2.7,36.9,12.6,51.2c3.8,5.5-29.5-19.8-18.5-61.3c2.1-7.9,2.2-22.9-15.9-23.9c-16.3-0.9-27.6-0.2-36.5-17
	c-6.3-11.8-6.8-31.4-1.8-47.7c3.1-10.3,0.5-33.7-18.3-54.8C952.8,262.4,915.6,254.8,917.3,255.1z"/>
<path class="st38" d="M916.7,256.7c58.2,16.8,72.2,53.3,64.6,82.2c-11.8,44.8,7.7,61.2,26.6,62c25.2,1.1,34.7,12.5,26.4,33.6
	c-4.7,12,4.2,42.6,14.1,56.9c3.8,5.5-26.6-23.9-15.7-65.5c2.1-7.9-0.1-19.2-18.3-20.2c-16.3-0.9-27.2-3.9-36.2-20.8
	c-6.3-11.8-5.2-30.2-0.2-46.5c3.1-10.3,4.6-31.6-14.2-52.7C948.6,268.7,915.1,256.2,916.7,256.7z"/>
<path class="st37" d="M916,257.5c59.3,24.9,67.9,56.5,60.3,85.3c-11.8,44.8,9.1,60.6,28,61.4c25.2,1.1,34.7,12.5,26.4,33.6
	c-4.7,12,4.2,42.6,14.1,56.9c3.8,5.5-26.6-23.9-15.7-65.5c2.1-7.9-0.1-19.2-18.3-20.2c-16.3-0.9-27.2-3.9-36.2-20.8
	c-6.3-11.8-6.5-30-1.6-46.3c3.1-10.3,5.2-33.8-13.6-54.9C944.2,270,914.4,256.8,916,257.5z"/>
<path class="st39" d="M1028.4,436.7c-5.2,25.1,3.2,39.6,8.4,45.2c-4.5-3.4-19.2-7-10-50.5c2.1-9.9-6.2-21.8-20.2-18.7
	c-10.9,1.9-24.3-5.6-31.6-20.4c0,0,9,21,38,16.9C1023.8,410.3,1035.1,419.4,1028.4,436.7z"/>
<path class="st34" d="M976.6,401.7c0,0,0.8,24.5,26.5,19.7c28.6-5.3,21,18.8,18.7,32c-3.3,18.7,2.8,19.9,11.1,27
	c0.5,0.4,10.7,8.6,14.3,13.4c2.9,4.1,6.1,10.7,7.4,17.7c3.2,18.2,6.6,29.3,6.6,29.3l-10.6-35.7c0,0-3.8-13.1-15.7-21.3
	c-8.5-5.9-19.4-9.6-15.6-29.6c3-15.9-1.8-30-8.9-28.3C978.8,433.8,976.6,401.7,976.6,401.7z"/>
<path class="st39" d="M977.8,408.8c0,0,7.5,21.9,25.3,17.2c14.7-3.9,22.3,3.1,15.7,29.8c-3.3,13.5,6.6,23.3,13.8,26.8
	c7.1,3.5,17.7,16.3,19.8,29c1.3,7.5,9.5,29.7,9.5,29.7s-7.7-19.2-10.5-27.7c-4.3-13.2-12.3-22.9-25.2-30.7
	c-9.3-5.6-13.8-14.9-9.2-33.8c0,0,7.7-22-12.6-19.8C984.6,431.5,977.8,408.8,977.8,408.8z"/>
<path class="st41" d="M1030.5,488.7"/>
<path class="st38" d="M1006.9,429.5c9.8,0,14.1,5.6,9.9,20.6c0,0.2,0-0.2,0,0c-3.9,14.1,1.6,28.5,8.6,31.6
	c10.3,4.6,16.9,11.8,20.8,20c2.3,4.9,6.5,10.7,5.7,17c-1.7,13,9.1,24.2,10.7,24.5c0,0-17.5-10.9-16.9-30.9
	c0.2-6.1-8.5-21.3-19.8-25.8c-14-5.6-14.9-28-11.3-39.5c1.6-5.1,3-14.9-6.3-15.2c-29.6-0.7-33.4-27.1-33.4-27.1
	C979.5,413.4,986.5,429.5,1006.9,429.5z"/>
<path class="st34" d="M916.7,253.3c49.7-5.4,83.4,47.1,75.8,75.9c-11.8,44.8,6.9,61.9,25.8,62.7c25.2,1.1,33.5,12.2,26.4,33.7
	c-6.8,20.5,4.2,42.6,14.1,56.9c3.8,5.5-26.5-19.6-15.5-61.1c2.1-7.9-0.3-23.6-18.4-24.6c-16.3-0.9-27.2-3.9-36.2-20.8
	c-6.3-11.8-3.4-29.2,0.9-45.7c4.6-17.3-4.4-37-23.2-58.1C951.2,255.3,915.1,253.5,916.7,253.3z"/>
<path class="st37" d="M918,250.8c53.2,0.7,86.3,46.3,78.7,75.1c-11.8,44.8,6.9,61.9,25.8,62.7c25.2,1.1,33.5,12.2,26.4,33.7
	c-6.8,20.5,4.2,42.6,14.1,56.9c3.8,5.5-26.5-19.6-15.5-61.1c2.1-7.9-0.3-23.6-18.4-24.6c-16.3-0.9-27.2-3.9-36.2-20.8
	c-6.3-11.8-3.4-29.2,0.9-45.7c4.6-17.3-2.7-32.6-21.5-53.7C957,256.4,916.3,250.8,918,250.8z"/>
<path class="st38" d="M923.6,248.1c61.4,2.6,82.7,46.7,75.1,75.5c-11.8,44.8,8.1,60.6,27.1,61.4c25.2,1.1,33.5,12.2,26.4,33.7
	c-6.8,20.5,4.2,42.6,14.1,56.9c3.8,5.5-26.5-19.6-15.5-61.1c2.1-7.9-0.3-23.6-18.4-24.6c-16.3-0.9-27.2-3.9-36.2-20.8
	c-6.3-11.8-3.4-29.2,0.9-45.7c4.6-17.3-6.9-42.4-25-56.3C953.9,253.3,921.9,248.1,923.6,248.1z"/>
<path class="st34" d="M969.1,379.6c0,0,5.7,17.2,15.9,25.7c8,6.7,14.5,8.3,19.1,7.5c29.3-5.2,19.6,25.3,19.6,25.3s3.5-14.2-4.8-20
	c-5.6-3.9-14.3,2.3-24.7-3.1C976.8,408.9,968.9,380.2,969.1,379.6z"/>
<path class="st37" d="M968,374.7c0,0,10.1,32.4,14.7,38c4.4,5.4,14.4,9.7,20.5,7.6c25.4-9.1,21.2,20.5,21.2,20.5s0.6-23.3-17.9-18.1
	C972.2,432.3,968,374.7,968,374.7z"/>
<path class="st39" d="M978.6,415.6c2.1,4.6,8.8,15.9,22.7,16.8c4,0.2,17.4-3,14.1,10.3c-1.7,7-7.9,36,9.4,43.2
	c27.7,7.8,26.3,48.1,38,61.2c-13.2-9.7-17.4-53.7-35.9-56.4c-17.1-5.2-20.5-25-15.3-42.7c4-13.9-7.5-12.5-9.2-12.6
	c-10.9-1.2-18.2-5-24-17.3c-5.4-11.4-12-28.7-10.8-41C967.6,377.1,972.5,402.3,978.6,415.6z"/>
<path class="st34" d="M973.8,407.8c0,0,5.5,13.3,11.2,19.5c3.6,3.9,13.7,7.4,18.1,7.4c9.7,0,10.4,4.9,9.2,12.3
	c-1.3,8.3-3.4,23.2,0.9,31.2c5.4,9.5,10.2,10.4,16.4,13.2c0,0,0,0,0,0c6.7,3,13.7,8.8,16.5,20c2.8,11.2,6.9,20.6,6.9,20.6
	s-0.9-1.6-6.1-15.5c-5.2-13.9-4.3-15.6-18.9-22.1c-30.2-13.4-18.2-40.4-17.4-48.7c1.1-10.6-12.8-4.7-26-15.4
	C978.4,425.4,974.4,409,973.8,407.8z"/>
<path class="st39" d="M913.7,263.6c0,0-11.9-7-35.7-14.5c-30.5-9.6-46.5-0.6-52.9,17.6c-9.1,25.7-24.1,33.1-39.5,37.6
	c-13.1,3.9-16.2,26.7-5.6,40.2c18.9,24.3,13.4,31.1,0.8,42.9s-8.1,22.1-0.3,36.4c7.8,14.3,10.4,40.4-7.7,56
	c-9.8,8.5-15.3,13.6-20.5,26.4c-7.6,18.5-3.2,39.9-3.2,39.9s1.4-42.4,19.5-56.6c25.5-20,24.1-45.6,14.4-67
	c-2.8-6.3-14.3-18.2-0.6-31.4c11-10.6,19.7-22.6,0.8-46.2c-9.8-12.3-7.2-35.5,3.8-38.6c27.6-7.9,33.7-20,43.5-42.5
	C844.5,231.4,913.7,263.6,913.7,263.6z"/>
<path class="st38" d="M913.4,263.7c0,0-28.4-11-42.1-12.3c-17.7-1.7-31.1-1.2-40.8,17.6c-9.2,17.6-13.9,31.8-36.3,36.4
	c-16.3,3.4-20,24.3-8.8,37.4c14.1,16.5,10.1,37.2-0.8,47.1c-14.7,13.3-7.4,21.2,2.7,39.4c7.5,13.5,4.4,38.5-12.8,55.3
	c-9.3,9.1-13.5,12.6-18.7,25.4c-7.6,18.5-5.6,36.1-5.6,36.1s0.4-34.4,20.6-52.8c25.3-23.1,35.8-45.3,19.7-67.7
	c-6-8.4-19.5-20.5-4.1-33.1c18.1-14.8,11.3-37.2,1.4-51.4c-12.5-18.1-1.8-30.4,10.1-34.1c25-7.8,24.8-17.2,33.7-36.3
	C846.5,238.7,913.4,263.7,913.4,263.7z"/>
<path class="st37" d="M912.9,262.4c0,0-13-4-27.7-4.7c-29.1-1.2-46.3,2.2-52.5,18.4c-8.4,22-20.3,29.4-35,31
	c-14,1.4-16.7,20.1-9.2,31.3c14.5,21.5,8.9,46.2,0.9,51.8c-16.6,11.8-6.5,23,2.4,36.6c11.2,17.2,8.3,41.1-9.7,56.7
	c-30.2,23.4-30.8,61.6-30.8,61.6s5.2-36.1,31.1-55.7c21.2-16.1,27.7-45.6,13.6-64.8c-4.9-7.2-20.7-19.6-3.8-31.9
	c14-10.7,6.4-44.5,1.5-52.1c-4.6-7.1-9.2-27.3,6.8-30.9c25.7-4.8,27.9-15,37-34.1C847.2,253.8,912.9,262.4,912.9,262.4z"/>
<path class="st38" d="M912.3,263.5c0,0-6.6-2.6-21.3-3.2c-29.1-1.2-47.2,1.8-53.4,18c-8.4,22-19.6,29.4-34.2,31
	c-14,1.4-16.1,15.9-10.3,28.4c11,23.4,7.8,50-0.1,55.6c-16.6,11.8-1.7,21.6,6.5,35.6c8.6,14.4,9.3,39.2-11.8,57.8
	c-33.5,24.9-30.1,56-30.1,56s2.7-33.1,29.4-51.6c22.9-15.9,29-44.7,14.8-63.9c-4.9-7.2-23.6-19.1-6.7-31.3
	c14-10.7,5.3-47.5,1.5-56.3c-3.8-9.1-4.3-21.4,6.3-26.6c25.7-4.8,29.7-17,38.7-36C851.5,255,912.3,263.5,912.3,263.5z"/>
<path class="st38" d="M958.3,246.1c29.9,16.3,46.8,39.9,47.2,82.8c0.2,17.9,8.7,49.1,34.3,49.8c20.1,0.5,21.6,19.3,20.5,42
	c-1.5,31.3,13.3,41.1,46.4,53.8c3.2,1.2-60.9-13.8-50-55.4c2.1-7.9,2.3-37.8-19.9-36.4c-16.3,1-38.9-26.4-33.8-55.7
	C1008,298.7,988.4,266.8,958.3,246.1z"/>
<path class="st39" d="M921.4,241.8c55.5-6.3,86.4,45.9,81.9,88.7c-1.9,17.8,5.6,52.5,31.2,53.1c20.1,0.5,23.2,16.4,22.1,39
	c-1.5,31.3,13.3,41.1,46.4,53.8c3.2,1.2-59.1-13.9-48.2-55.5c2.1-7.9,0.9-34.7-21.4-34.1c-19.4,0.5-37.7-15.6-32.2-58.4
	C1005.2,296.7,980.5,240.2,921.4,241.8z"/>
<path class="st37" d="M737.6,329.2c0,0,15.4,23.6,18.1,27.7c2.7,4.1,8.5,17.6,2.7,23.9c-5.8,6.3-8.2,23.6-1.1,35.2
	c7.1,11.5,7.7,29.7-9.1,49.2c-16.8,19.5-17.3,39.3-13.7,55.5c3.6,16.2,8.2,27.6,8.2,27.6s-17.3-41.1-11.5-57.8
	c5.8-16.8,12.4-22,14.3-27.5c1.9-5.5,15.5-32.9,7.7-44.5c-8.8-13.2-7.4-26.4,1.1-39.8C761.6,367.2,737.6,329.2,737.6,329.2z"/>
<path class="st38" d="M737.9,328.9c0,0,10.3,20.1,13.1,24.2c2.7,4.1,6.8,21.5,2,28.6c-6.8,10.1-7.7,23.1-0.5,34.6
	c7.1,11.5,7.7,29.7-9.1,49.2c8.5-15.7,12.7-30.7,4.9-42.3c-8.8-13.2-7.4-30.8,1.1-44.2C756.7,367.5,737.9,328.9,737.9,328.9z"/>
<path class="st39" d="M917.1,260.1c22,7.1,64.3,27.5,53.8,83.3c-9.2,49.2-6.9,87.4,11.8,98.4c1.7,1,22.2,9.1,14.9,32.9
	c-8.3,26.8,56.1,67.9,56.1,67.9s-19.4-10.9-32.1-21.3c-12.4-10.3-29.1-31.8-26.7-42.8c4.4-20.5-4.6-26.8-14.6-35.7
	c-23.5-21-20.4-54-11.3-105.2C978.7,283,917.1,260.1,917.1,260.1z"/>
<path class="st34" d="M967.6,376.8c-0.2,46.9,8.8,58,24.6,63.3c12.1,4,21.5,7.6,11.1,29.5c-9.8,20.4,18.3,39,26.1,45.9
	c-19.6-12.4-35.6-25-28.2-49c4.9-16,3.1-20-13.7-25.1c-12.4-3.7-18.2-18-19.6-41.4C967.2,389.7,966.8,380.2,967.6,376.8z"/>
<path class="st38" d="M967.5,377.8c-0.2,46.9,18.1,57.1,26.7,60.1c12.1,4.1,19.5,13.6,12.3,31c-8.7,20.9,18.7,38.5,26.6,45.3
	c-19.6-12.4-35.6-25-28.2-49c4.9-16-0.8-19-16.7-26.6c-12.7-6-16.8-21.5-19.4-37.7C967.1,390.7,966.7,381.2,967.5,377.8z"/>
<path class="st38" d="M991.5,477.2c-0.2,1.2-0.6,2.8-1,4.2l-1.9-1.9c0.2-1.1,0.4-2.2,0.6-3.3c2.5-17.7-5.7-25.9-15.9-33
	c-20.1-19.4-20.8-49.7-9.6-100.5c10.2-46.3-47.1-79.9-47.1-79.9c15,6,63.9,34.2,47.9,88.7c-10,34.2-5.7,76.2,15.2,92.5
	C981.2,445.1,995.5,456.5,991.5,477.2z"/>
<path class="st42" d="M987.3,478.1c-0.8-0.8-1.6-1.6-2.3-2.4"/>
<path class="st38" d="M988,475.6c-0.2,0.9-0.4,1.6-0.7,2.5c-0.8-0.8-1.6-1.6-2.3-2.4c0.1-0.6,0.1-0.8,0.2-1.4
	c2.9-18.1-8.9-18.9-16-23.7c-21.8-14.7-23.9-52.7-12.7-103.6c10.1-45.8-42.1-82.6-42.1-82.6c15,6,57.2,44.2,45.4,89
	c-9.1,34.4-9,78.6,11.2,94C979.4,452.8,992.1,457.9,988,475.6z"/>
<path class="st42" d="M967,714.9L967,714.9c-0.4,0.5-0.7,1-1.1,1.4l-2.7,3.5l-3.3,4.4l-5.4,7.6l-8,11.9l0,0c-2.3,3.5-4.6,7-6.6,10.7
	l0,0c-1.9,3.5-3.4,7.2-4.9,10.8l-2.7,6.9l-1.7,4l-1.9,4.3l-1.4,3.1l0,0c-0.3,0.5-0.5,1.1-0.8,1.6l0,0c-0.1-0.3-0.3-0.7-0.3-1l0,0
	c-0.1-0.9,0.3-1.9,0.5-2.8l0,0c0.6-2.5,1.4-4.9,2.3-7.3l0,0c2-5.3,4.4-10.4,6.9-15.5l0,0c3-6.1,6.4-12,9.8-17.8l0,0
	c1.8-3.2,3.6-6.5,5.7-9.5l0,0c1-1.5,2.1-2.9,3.3-4.2l0,0c1-1.2,2.2-2.4,3.3-3.5l2.7-2.8l1.9-1.9l0,0c0.4-0.4,0.7-0.7,1.1-1.1l0,0
	c-0.2,0.3-0.4,0.5-0.6,0.8l0,0c-0.7,0.9-1.4,1.7-2,2.6l0,0c-1.9,2.7-3.6,5.6-5.3,8.5l-9.9,16.1l-8.4,13.5l-4.1,6.8l0,0
	c-0.6,1-1.2,2.1-1.9,3.1l0,0c-0.5,0.7-1,1.4-1.6,2l0,0c-0.3,0.4-0.6,0.8-1,1.2l0,0c0.1-0.3,0.1-0.7,0.2-1l0,0
	c1.9-5,5.2-9.4,7.8-14.2l6.8-12.4l9.4-17.7l0,0c2.6-4.8,4.9-9.8,7.9-14.3l0,0c1.1-1.7,2.4-3.1,3.6-4.7l0,0c0,2.2,0.4,4.5,0.1,6.6
	l0,0c-0.9,5.5-3.4,10.8-5.5,16l0,0c-1.4,3.4-2.8,6.8-4.5,10l0,0c-2.4,4.5-5.2,8.8-7.9,13.2l-6.7,10.5l-3.5,5.4l-1.6,2.5l0,0
	c-0.1,0.1-0.2,0.3-0.3,0.4l0,0c1.4-1.7,2.9-3.4,4.3-5.2l13.3-17.7l15.6-22.3l8.4-12.1l0,0c1-1.3,2-2.6,3-3.9l0,0
	c0.1,0.1,0.3,0.2,0.3,0.4l0,0c0.4,2.2-2,5-3.1,7.4l0,0c-0.9,2-1.8,3.9-2.9,5.8l0,0c-1.4,2.3-3,4.4-4.6,6.6l-4.2,5.4l-8,10l-6.3,7.8
	l0,0c-1,1.2-2.1,2.3-3.1,3.5l0,0c0-0.4,0-0.8,0.1-1.2l0,0c0.4-1.2,1.4-2.3,2.1-3.4l7.4-11.3l12.5-19.1l0,0c2.7-4.1,5.5-8.2,8.3-12.3
	l0,0c0.5,0.4,1.5,0.7,1.6,1.3l0,0c0.8,2.6-1.8,6.3-2.9,9.4l0,0c-0.9,2.3-1.9,4.5-3,6.6l0,0c-1.8,3.2-3.9,6.2-6,9.3l-8.9,12.3
	l-5.5,7.6l0,0c-0.8,1-1.6,2-2.5,3l0,0c0.1-0.7,0.2-1.4,0.4-2l0,0c0.5-1.3,1.4-2.5,2.1-3.7l5.9-8.8l14.1-20.8l10.2-15.1l0,0
	c1.3-2,2.7-3.9,4-5.9l0,0c0,0.7,0,1.4-0.1,2l0,0c-1.2,4.4-3.7,8.5-6,12.6l0,0c-2.4,4.3-5.1,8.6-8.1,12.6l0,0
	c-2.4,3.1-5.3,5.9-8.1,8.7l-6.9,6.9l-4.3,5l-2,2.3l0,0c-0.2,0.3-0.4,0.5-0.6,0.8l0,0c1.4-1.6,2.9-3.2,4.3-4.8l4.8-5.7l8.9-12
	l11.2-17l0,0c1.6-2.5,3.2-5,4.9-7.5l0,0c0.1,0.3,0.2,0.6,0.2,0.9l0,0c-0.4,3.6-2.6,7-4.2,10.4l0,0c-2.5,5.4-5.2,10.9-8.2,16l0,0
	c-2.6,4.4-5.6,8.6-8.7,12.7l0,0c-1.7,2.3-3.6,4.4-5.4,6.6l-2.7,3.3l0,0c-0.7,0.9-1.4,1.9-2.2,2.7l0,0c-0.3,0.3-0.6,0.5-0.9,0.8l0,0
	c0.1-0.4,0.2-0.8,0.4-1.2l0,0c1.7-3.7,4.2-7.1,6.3-10.6l13.7-21.8l0,0c4.2-6.8,8-13.9,12.7-20.3l0,0c1.3-1.8,2.8-3.3,4.3-5l0,0
	c-1.4,4.1-2.5,8.3-4.2,12.3l0,0c-2.4,5.8-5.3,11.5-8.6,16.7l0,0c-2.4,3.9-5.3,7.5-8.4,10.9l0,0c-2,2.1-4.3,4-6.4,6l-3.9,3.6l0,0
	c-0.6,0.6-1.2,1.3-1.9,1.8l0,0c-0.1,0.1-0.2,0.1-0.3,0.1l0,0c1.5-1.7,3-3.4,4.4-5.1l4.5-5.4l6.8-8.8l0,0c1.7-2.2,3.6-4.3,5-6.7l0,0
	c0.3-0.4,0.4-0.9,0.6-1.4l0,0c-0.4,0.3-0.8,0.7-1.2,1l0,0c-0.8,0.6-1.5,1.3-2.4,1.8l0,0c-1,0.7-2.1,1.2-3.1,1.7"/>
<path class="st43" d="M994.9,664.5c0,0-0.1-0.1-0.1-0.1c0-0.1,0.1-0.3,0.1-0.4c-0.3-1.2-1.4-2.3-2.7-2.6c-0.2,0-0.4,0-0.6,0.2
	c-0.1,0.1-0.1,0.2-0.1,0.3c0,0,0,0,0,0l0,0c-0.7,1.1-1.3,2.3-2,3.4c-6.9,12-15,25.5-22.8,38.1c-0.7,1.1-1.4,2.2-2.1,3.3
	c-0.8,1.1-1.7,2.2-2.5,3.3c-2.3,3.1-8.4,11-11,16.5c-0.1,1.4,1.3,2.8,2.6,3.2c-0.7,1-1.3,2.1-2.1,3.2c-1.3,1.6-2.1,3.7-3.8,4.8
	c-0.3,0.3-1.8,0.3-1.9,0.6c-0.2-0.5-0.4-1-0.6-1.5c-0.1-0.2-0.1-0.4-0.2-0.5c0.1,0.3,0.1,0.7,0.2,1c0.2,0.4,0.2,0.9,0.4,1.2
	c0.8,0,1.7-0.1,2.5-0.3c1.3-0.6,2.1-1.8,2.9-2.8c2.3-2.5,4.4-5.1,6.5-7.8c7-9.2,15.8-21.4,21.9-32.5c2.2-4,4.3-8,6.5-12
	c2.9-5.8,6.8-11.5,8.5-17.7C994.7,664.9,994.8,664.7,994.9,664.5z"/>
<path class="st43" d="M989.7,679.9c-6.1,8.9-12.2,17.7-18.7,26.3c-7.8,10.8-15.1,22-22.6,33.1c-1.9,2.9-4.2,6.3-5.8,8.8
	c-0.7,1-4.2,5.2-1.9,5.6c1.7-1.4,3.3-3,4.6-4.7c-1.2,1.1-2.4,2.1-3.8,3c2.8-3.2,5.3-5.8,8.2-9.4C965.5,723.4,979,702.4,989.7,679.9z
	"/>
<path class="st43" d="M982.4,715.2c-0.3,0-0.7,0.1-1,0.2c4.2-6.5,8.2-13.1,12.2-19.7c-5.9,7.3-11.6,14.8-17.6,22.1
	c-2.5,1.6-4.7,3.5-6.9,5.2c-7.2,5.8-13.9,12.2-20.1,19c-2.6,2.9-5,6.1-6.3,9.8c-0.1,0.6,0.2,1.2,0.6,1.7c0.6,0.7,1.8,1.9,2.8,1.4
	c6.3-5,13.3-11.7,19.4-18.3c3.9-4.2,7.4-8.8,10.8-13.4c1.8-1.3,3.6-2.5,4.8-3.2c-1.5,6.9-5.9,12.1-10.2,18.2
	c-3.9,5.9-7.9,12.3-14.7,15.2c-4.6,2.1-9.3,4.1-13.9,6c0.5-0.1,1.1-0.3,1.6-0.4c13.6-4,20.3-4.6,28.8-17c4.9-6.6,11.6-13,12-21.7
	c0-0.9,0.5-2,0.1-2.9C984.3,716.4,983.4,715.5,982.4,715.2z"/>
<path class="st43" d="M971.7,715.5c-0.1,0.1-0.1,0.1-0.1,0.2c-0.1,0-0.1,0.1-0.1,0.2c-1.3,1.6-2.2,3.6-3.4,5.4
	c0.7-0.8,1.4-1.6,2.1-2.4c-1.6,2.8-4.2,5-6.2,7.5c-4,4.8-8.2,9.7-13.9,12.6c-1.5,0.8-3.3,1.5-4.9,0.6c1,0.7,2.3,0.8,3.5,0.7
	c10.3-2.3,17.4-11.4,22.6-20c0.7-1.3,1.1-2.7,1.1-4.1C972.3,715.9,972,715.6,971.7,715.5z"/>
<path class="st44" d="M861.7,338.1c4.6,0.3,7.4,4.7,4.4,19.4c-0.1,0.7-6.1,4.4-14.2,5.6c-8.1,1.2-17-1.4-17.6-1.6
	c-2-0.7,10.9-6.3,10.9-6.3s-34.9,7.8-32.2,7.6c1.7-0.1,40.7-15.5,40.1-15.3c-6.7,2.1-37.5,6.5-40.1,7.1
	C800.5,357.4,857.1,337.8,861.7,338.1z"/>
<path class="st45" d="M835.1,369.3l12.7-0.7l15.3-0.9c-4.1,7.4-12.3,25.7-28.4,26.2c-14.7,0.4-22.2-11.6-22.2-11.6L835.1,369.3z"/>
<path class="st46" d="M803.5,352.7l8.3,4.6c0,0-0.7,8.8,6.5,5c7.1-3.8,24,0.6,32.1,0.3c8.8-0.3,15.8-5.2,15.8-5.2s-1.7,9.7-3,10.3
	c-6.2,2.9-24.4,1.6-28.2,2.6c-5.2,1.5-7.1,5.8-11.9,6.4c0,0-10.2,5.9-10.6,5.6c0,0-4.5-8.2-5.7-14.7L803.5,352.7z"/>
<path class="st47" d="M837.8,361.8c-17.5-1.7-18.4,2.4-23.1,1.5c-3.4-0.7-3.4-5.5-3.4-5.5l-7.7-4.8c0,0,6-10.4,18.3-14.2
	c24.8-7.7,41.3,0,41.3,0l-42.9,13.3l40.7-7.4l-34.2,14l18.9-4.3"/>
<path class="st48" d="M889.1,335.1c-7.4-2.1-17.6-2.2-22.3,5.5"/>
<path class="st48" d="M867.8,343.9c0-1.7-1.7-3.2-2.8-4.4c-10-10.7-61,1.1-61.2,13c-0.2,11,6.3,38.6,24.7,41.6
	C843.3,396.5,867.8,381.7,867.8,343.9z"/>
<path class="st44" d="M894.1,333.4c-5,1.8-6.4,5.6-3.3,20.7c0.2,0.7,5.1,3.8,13.4,5c8.4,1.2,17.5-1.4,18.1-1.6
	c2.1-0.7-11.2-6.5-11.2-6.5s35.9,8.1,33.1,7.9c-1.8-0.1-41.9-16-41.2-15.8c6.9,2.2,38.6,6.7,41.2,7.3
	C957.1,353.3,898.6,331.8,894.1,333.4z"/>
<path class="st45" d="M921.4,364.6l-12.7-0.7l-15.2-0.9c0,0,9.2,22.9,26,24.4c17.2,1.5,24.4-9.8,24.4-9.8L921.4,364.6z"/>
<path class="st46" d="M953.9,348.5l-8.5,4.7c0,0,0.7,9.1-6.6,5.2c-7.3-3.9-24.7,0.6-33,0.3c-9.1-0.3-15.1-4.6-15.1-4.6
	s1.9,9.7,3.3,10.3c6.4,3,23.8,1.2,27.7,2.3c5.4,1.6,7.3,5.9,12.2,6.6c0,0,9,5.4,9.4,5.2c0,0,5.9-8.6,7.3-14.5L953.9,348.5z"/>
<path class="st47" d="M918.7,357.9c18-1.8,18.9,2.6,23.8,1.6c3.5-0.7,3.5-5.8,3.5-5.8l7.9-5.1c0,0-7.2-10.5-19.9-14.5
	c-25.5-8.2-41.3-0.6-41.3-0.6l44.1,14.1l-41.8-7.8l35.2,14.8l-19.4-4.6"/>
<path class="st48" d="M888.5,339.2c0-17.3,64.6-4.8,64.7,8.4c0.2,11-3.8,37-26.1,39.9C912.3,389.5,888.5,376.9,888.5,339.2z"/>
</svg>
